<svg width="96" height="101" viewBox="0 0 96 101" fill="none" xmlns="http://www.w3.org/2000/svg">
<path d="M93.9401 30.8224C94.5472 29.2037 94.6187 27.4496 94.1405 25.9043C93.501 25.0077 92.6927 24.2872 91.7644 23.7864C90.836 23.2856 89.807 23.015 88.7395 22.9908C84.9289 22.6062 81.0812 22.4542 77.2129 22.5357C75.2515 22.4957 73.2814 22.5668 71.315 22.7156C68.3982 22.8937 65.4763 23.2604 62.526 23.6167C57.0973 24.2717 51.6728 25.2536 46.2759 26.5581C40.8767 27.8246 35.5453 29.6809 30.3592 32.1L16.7776 38.7729L13.5466 40.5878C13.1421 40.8277 12.761 41.122 12.4125 41.4637C12.2151 41.7233 12.0967 42.0432 12.0776 42.3687C11.9998 42.7583 12.0065 43.1535 12.0971 43.5193C12.1877 43.8852 12.3594 44.2105 12.5971 44.4665C13.5343 45.3159 14.6056 45.9699 15.7682 46.4023C17.0219 46.8663 19.2444 47.6888 21.0294 48.7305C22.0075 49.0538 22.9122 49.569 23.705 50.2543L21.4801 57.9292C20.8571 60.1376 20.3223 61.8452 19.7393 63.4205C18.8089 65.9344 16.9113 70.1863 15.646 73.6051C15.5341 73.9073 15.5289 74.235 15.6315 74.5159C15.7341 74.7969 15.9361 75.0082 16.193 75.1032C16.4499 75.1983 16.7408 75.1695 17.0016 75.023C17.2623 74.8765 17.4717 74.6244 17.5836 74.3222C18.8241 70.9704 20.832 66.6831 21.7908 64.1798C22.3987 62.5374 23.0313 60.828 23.663 58.5085C24.2947 56.189 25.3367 53.3734 25.7166 51.6467C26.0965 49.92 26.403 49.0044 23.139 46.8818C21.1422 45.7998 18.2979 44.5566 16.768 43.876L15.3001 43.0278L17.6598 41.729L31.2115 35.3118C36.2257 32.942 41.388 31.1366 46.6177 29.9239C51.8663 28.8 57.1341 27.9768 62.4004 27.4573C65.269 27.147 68.1536 26.8808 70.9638 26.8157C77.0178 26.4742 83.0281 26.7597 88.9196 27.6686C91.0002 29.9249 90.208 30.9274 89.8161 31.8113C89.0836 33.4639 88.2062 35.0425 87.1984 36.5208L78.1142 49.7743C76.2941 52.4161 74.4915 54.8358 72.6851 57.1779C68.2927 62.8311 63.8497 68.0083 59.2304 74.1873C58.167 75.5839 57.028 76.9067 55.8213 78.1465C53.8986 80.1026 51.8708 81.9054 49.978 83.6057C49.4119 84.1727 48.8089 84.689 48.1758 85.149L47.742 85.4458L47.6827 85.0809L46.7809 78.764C46.2151 75.9765 45.5199 73.2389 44.698 70.5618C43.8781 67.8651 42.9123 65.2426 41.8057 62.708C41.0271 61.0478 38.8199 56.42 36.901 58.4537C36.4548 58.784 35.8312 59.5059 35.5734 59.6773L30.1309 64.1415L24.176 69.9024C22.0737 71.9063 19.793 73.6918 17.6053 75.664C16.6669 76.5363 15.7162 77.442 14.8261 78.4464C14.6393 78.6502 14.5241 78.9213 14.5059 79.2004C14.4876 79.4794 14.5678 79.7435 14.7288 79.9347C14.7288 79.9347 15.2413 81.0009 16.7941 80.3942C18.3469 79.7875 18.7881 79.6459 19.6667 79.2852C20.5453 78.9244 22.5145 78.2431 23.8913 77.7619C25.268 77.2806 26.3585 76.9601 27.5841 76.5372L33.2301 74.5872C36.2166 73.5203 39.1425 72.3547 42.0611 71.034L42.3098 71.8501C43.0669 74.5312 43.7013 77.2812 44.1859 79.8233L44.8399 85.9342C44.8895 86.6022 44.9815 87.2602 45.1154 87.9035C45.2033 88.1669 45.3454 88.3978 45.531 88.5787C45.7166 88.7596 45.9408 88.8858 46.1867 88.9478C46.9102 89.0671 47.6702 88.9527 48.3824 88.6172C49.5342 87.9933 50.622 87.2036 51.6161 86.2699C53.5659 84.5906 55.704 82.7524 57.6588 80.8845C59.017 79.566 60.2923 78.1395 61.4732 76.6179C66.1372 70.4936 70.6693 65.4256 75.0654 59.85C76.9944 57.439 78.8504 54.9628 80.7237 52.2644L89.8861 38.8874C91.5867 36.4153 92.9552 33.6929 93.9401 30.8224ZM30.7261 71.3739C29.4658 71.7573 28.2167 72.2108 26.9836 72.7327C25.6799 73.2791 24.4208 73.8802 23.0799 74.5271L19.9877 76.3171C21.8308 74.7508 23.7061 73.2727 25.4762 71.6412L31.4904 66.2453L36.814 61.9275C37.0309 61.7792 37.7684 61.0994 38.0634 60.8275C38.3584 60.5556 38.472 61.4741 38.6862 61.8583C38.9004 62.2424 39.4598 63.7071 39.6938 64.2128C40.278 65.6105 40.8126 67.1421 41.3026 68.6192C37.8142 69.729 34.2467 70.3522 30.7261 71.3739Z" fill="#0E121B"/>
<path d="M55.6851 44.0263C53.4555 45.4115 51.3596 46.9604 49.0964 48.5237C46.8332 50.0869 44.1188 52.1692 41.7228 54.1787C41.2109 54.599 40.7151 55.0634 40.2317 55.4942C38.5109 57.8679 39.714 57.8559 42.4119 56.606L42.842 56.2316C45.3184 54.4424 47.9446 52.8611 50.3949 51.4051C54.4539 48.7535 58.6862 46.509 62.7637 44.2452L71.6819 39.5811C76.0281 37.3787 80.4489 34.9753 84.8002 32.5843C92.9392 24.7735 75.4115 33.5302 65.9382 38.2937C62.4297 40.1583 59.0562 41.9204 55.6851 44.0263Z" fill="#0E121B"/>
<path d="M58.3412 33.348C53.2145 35.0329 48.1559 36.9716 43.0228 39.1114L30.8308 44.3932C30.0376 44.7856 29.1466 45.1799 28.2555 45.5742C26.1436 47.0791 26.0701 47.8903 29.7713 47.4309C30.3637 47.2309 30.956 47.0309 31.4629 46.7993L43.7933 42.3691L74.2486 32.0328C77.2388 31.0435 80.1436 30.0225 83.109 29.1003C84.4815 27.0549 79.8524 27.1328 75.6628 28.2117L73.7556 28.7254C68.6055 30.211 63.4517 31.6191 58.3412 33.348Z" fill="#0E121B"/>
</svg>
