<svg width="351" height="22" viewBox="0 0 351 22" fill="none" xmlns="http://www.w3.org/2000/svg">
<path fill-rule="evenodd" clip-rule="evenodd" d="M116.364 1.94337C77.6574 1.4875 38.793 3.1535 1.32829 10.1491C0.659851 10.2734 0.382361 10.518 0.327671 10.5739C0.00763222 10.9054 -0.0268616 11.2577 0.0136496 11.5478C0.0379563 11.7239 0.202098 12.4678 1.09942 12.5445C1.71924 12.5963 6.11869 12.2337 7.81611 12.1404C15.8069 11.7032 23.7817 11.0795 31.7522 10.3584C49.8243 8.72967 67.8719 7.32061 85.9723 6.03795C96.1346 5.31684 106.301 4.72004 116.461 4.23101C140.904 4.52318 165.285 5.66289 189.211 6.83987C179.701 7.43872 170.963 8.04586 163.717 8.43957C151.499 9.10266 139.303 9.88593 127.109 10.9179C120.844 11.4463 114.587 12.0203 108.335 12.6979C107.642 12.7745 106.064 12.8533 105.3 12.9465C104.976 12.9838 104.741 13.0439 104.636 13.0854C103.976 13.3464 103.893 13.881 103.884 14.1504C103.88 14.3141 103.935 15.2072 105.049 15.3813C156.849 23.5497 210.891 14.0468 262.877 21.9873C263.486 22.0806 264.058 21.6496 264.149 21.0238C264.24 20.4 263.819 19.8157 263.207 19.7224C214.245 12.244 163.458 20.2405 114.434 14.3701C118.718 13.9453 123.004 13.5619 127.294 13.1993C139.465 12.1694 151.639 11.3883 163.837 10.7252C176.112 10.06 192.705 8.76075 210.074 7.94225C224.98 8.79183 239.878 9.74502 254.787 10.5532C261.076 10.893 267.367 11.1748 273.655 11.5209C276.239 11.6618 282.889 12.2523 283.853 12.0327C284.603 11.8607 284.783 11.3116 284.828 11.036C284.874 10.7376 284.846 10.3667 284.506 10.0123C284.4 9.90043 284.084 9.66836 283.436 9.47772C265.905 4.34085 237.199 4.42166 210.313 5.66288C204.53 5.33133 198.747 5.01637 192.962 4.73248C179.719 4.07975 166.33 3.42494 152.864 2.90898C190.813 1.94957 228.78 2.22517 266.758 2.91935C282.703 3.21152 325.683 4.97286 342.611 6.52905C342.404 6.74663 342.283 7.04915 342.297 7.37863C342.325 8.00856 342.85 8.49759 343.468 8.46858C346.96 8.30281 348.979 8.09145 349.779 7.87388C350.277 7.73919 350.549 7.52368 350.674 7.38278C350.982 7.04294 351.039 6.67823 350.978 6.33218C350.94 6.11667 350.845 5.88045 350.626 5.66288C350.48 5.51368 350.124 5.28576 349.516 5.13034C342.862 3.43739 285.784 0.977727 266.798 0.629605C216.627 -0.286288 166.476 -0.472763 116.364 1.94337ZM269.865 9.02598C260.061 7.66457 248.568 7.18591 236.579 7.21699C242.686 7.57962 248.795 7.93397 254.906 8.26552C259.891 8.53697 264.878 8.76903 269.865 9.02598ZM70.1244 4.90034C57.2621 5.87011 44.414 6.91861 31.5557 8.07902C30.071 8.21163 28.5883 8.34218 27.1035 8.47066C41.323 6.6886 55.6903 5.55514 70.1244 4.90034Z" fill="#20294C"/>
</svg>
