<svg width="79" height="124" viewBox="0 0 79 124" fill="none" xmlns="http://www.w3.org/2000/svg">
<path fill-rule="evenodd" clip-rule="evenodd" d="M77.9237 0.00768901C69.2419 -0.579094 8.07909 32.5349 0.382159 63.4698C-2.60689 75.4379 12.1284 92.419 37.7873 106.705C42.019 109.06 44.9556 110.645 48.4672 113.53C48.7009 113.704 46.1627 113.516 42.797 113.074C34.8283 112.029 30.4324 112.556 28.0685 114.862C26.9396 115.986 27.4421 116.316 30.3759 116.389C38.7955 116.581 46.5255 118.531 56.3316 123.009C60.1875 124.763 66.7744 124.043 62.0788 115.483C58.1066 108.242 56.4859 103.445 55.3892 95.3334C54.6654 90.0784 50.9101 89.1778 48.9252 93.7655C48.2354 95.3551 48.875 100.959 50.3699 106.531L51.1457 109.369C40.7363 103.54 40.05 103.21 32.2219 97.9827C13.6354 85.5365 4.72664 73.2318 7.07596 63.1957C13.0443 37.8181 54.2205 14.6588 78.6608 1.01645C79.3316 0.648439 78.9205 0.0664377 77.9237 0.00768901Z" fill="#2388FF"/>
</svg>
