<svg width="258" height="19" viewBox="0 0 258 19" fill="none" xmlns="http://www.w3.org/2000/svg">
<path fill-rule="evenodd" clip-rule="evenodd" d="M85.5324 1.67836C57.0815 1.28465 28.5145 2.72348 0.976346 8.76513C0.485018 8.87251 0.281052 9.08368 0.240852 9.132C0.00561001 9.41834 -0.0197445 9.72256 0.010033 9.9731C0.0278995 10.1252 0.148551 10.7677 0.808121 10.8339C1.26372 10.8786 4.4975 10.5655 5.74517 10.4849C11.6188 10.1073 17.4805 9.56866 23.3392 8.94588C36.623 7.53926 49.8888 6.32235 63.1933 5.21459C70.663 4.59182 78.1357 4.0764 85.6039 3.65406C103.57 3.90639 121.492 4.89068 139.078 5.90716C132.088 6.42435 125.665 6.9487 120.339 7.28872C111.358 7.86139 102.394 8.53784 93.4309 9.42906C88.8258 9.88541 84.2266 10.3811 79.6305 10.9663C79.1213 11.0325 77.9615 11.1005 77.4002 11.1811C77.1619 11.2133 76.9893 11.2652 76.9118 11.301C76.4265 11.5265 76.3654 11.9882 76.3595 12.2208C76.3565 12.3622 76.3967 13.1335 77.2156 13.2838C115.291 20.3384 155.014 12.1313 193.226 18.989C193.674 19.0696 194.094 18.6973 194.161 18.1569C194.228 17.6182 193.918 17.1136 193.468 17.033C157.479 10.5744 120.149 17.4804 84.1135 12.4105C87.2625 12.0437 90.4129 11.7126 93.5664 11.3994C102.513 10.51 111.461 9.83531 120.427 9.26264C129.45 8.68818 141.647 7.5661 154.414 6.85921C165.37 7.59295 176.321 8.41615 187.279 9.11409C191.902 9.40758 196.526 9.65098 201.148 9.94984C203.048 10.0715 207.936 10.5816 208.644 10.3919C209.195 10.2433 209.328 9.76909 209.36 9.53108C209.395 9.27338 209.374 8.95303 209.124 8.64701C209.046 8.55037 208.814 8.34995 208.338 8.1853C195.451 3.74892 174.351 3.8187 154.589 4.89067C150.339 4.60433 146.088 4.33232 141.836 4.08714C132.101 3.52342 122.26 2.9579 112.362 2.5123C140.256 1.68372 168.163 1.92174 196.078 2.52125C207.799 2.77359 239.391 4.29474 251.834 5.63872C251.682 5.82663 251.592 6.08791 251.603 6.37245C251.624 6.91649 252.009 7.33883 252.463 7.31378C255.03 7.17061 256.515 6.98807 257.103 6.80017C257.469 6.68384 257.668 6.49773 257.761 6.37603C257.987 6.08254 258.029 5.76756 257.984 5.4687C257.956 5.28258 257.886 5.07857 257.725 4.89067C257.618 4.76182 257.356 4.56497 256.909 4.43075C252.018 2.96866 210.063 0.8444 196.108 0.54375C159.23 -0.247248 122.367 -0.408296 85.5324 1.67836ZM198.362 7.79517C191.156 6.61941 182.708 6.20601 173.896 6.23286C178.385 6.54604 182.875 6.85207 187.367 7.1384C191.031 7.37284 194.697 7.57326 198.362 7.79517ZM51.5444 4.23211C42.0901 5.06964 32.6462 5.97516 23.1948 6.97733C22.1034 7.09187 21.0136 7.20461 19.9223 7.31557C30.3741 5.77652 40.9347 4.79762 51.5444 4.23211Z" fill="#2388FF"/>
</svg>
