<svg width="38" height="41" viewBox="0 0 38 41" fill="none" xmlns="http://www.w3.org/2000/svg">
<path fill-rule="evenodd" clip-rule="evenodd" d="M14.9544 8.18287C14.8431 7.52264 14.7593 6.86989 14.7051 6.21708C14.6235 5.23785 14.674 4.25114 14.645 3.27192C14.6324 2.85649 14.5827 1.77342 14.6027 1.61764C14.7845 0.260076 15.8802 0.0523366 16.2006 0.0152448C16.3557 -0.0070103 17.9477 -0.184972 18.2911 1.5806C18.7125 3.73934 18.8475 5.9129 18.6984 8.04197C19.0463 9.85205 19.6413 11.6547 20.4269 13.2867C23.553 19.7778 29.5099 20.4084 35.9639 20.349C36.9565 20.3342 37.7807 21.1131 37.8326 22.0997C37.8846 23.0938 37.1457 23.9543 36.1576 24.0433C32.55 24.392 26.1494 27.2852 23.9365 30.2971C23.4736 30.9276 23.2043 32.4484 22.8482 33.9395C22.3512 36.0092 21.76 38.0567 21.0975 38.9172C20.9981 39.0507 19.7896 40.4157 19.4291 40.616C18.5626 41.0908 17.869 40.8163 17.4751 40.5641C17.0812 40.3118 16.6354 39.8148 16.4573 38.9914C16.2711 38.1308 16.4284 36.3652 16.3995 35.9869C16.2941 34.6145 16.0197 31.9216 15.4596 29.6071C15.1576 28.3608 14.8357 27.211 14.303 26.6398C12.3312 24.5255 9.17843 24.8371 6.5234 25.1858C6.2185 25.2229 5.91361 25.2674 5.60946 25.3045C4.5286 25.6235 3.38095 25.8609 2.16805 26.0018C0.336454 26.2169 0.0352888 24.533 0.0189684 24.4217C-0.0151561 24.1769 -0.142024 22.9158 1.23853 22.4113C1.38913 22.3594 2.50041 22.1146 2.92845 22.0181C3.52489 21.8846 4.12799 21.7808 4.73333 21.6844C10.9863 19.7407 14.3824 14.2808 14.9544 8.18287ZM17.1005 14.9262C19.461 19.8075 23.0433 22.1665 27.2896 23.2348H27.2889C24.6376 24.622 22.2258 26.3579 20.9476 28.1013C20.4625 28.7615 20.0174 30.0893 19.6161 31.5804C19.3987 30.1932 19.105 28.7169 18.717 27.4558C18.2756 26.0166 17.6813 24.8223 17.0181 24.1102C15.7377 22.7378 14.1309 21.9737 12.4032 21.5953C14.4714 19.763 16.0397 17.4782 17.1005 14.9262Z" fill="white"/>
</svg>
