<svg width="84" height="84" viewBox="0 0 84 84" fill="none" xmlns="http://www.w3.org/2000/svg">
<g clip-path="url(#clip0_129_28415)">
<path d="M82.5301 17.8152C82.219 15.9365 81.3536 14.1936 80.0451 12.8102C78.2516 12.0448 76.3249 11.6405 74.3751 11.6202C60.511 10.868 46.6143 10.9498 32.7601 11.8652C18.6901 12.7752 5.95006 14.6302 1.92506 17.5002C1.25013 18.1252 0.816497 18.9677 0.700064 19.8802C0.118004 24.429 -0.116009 29.0157 6.42315e-05 33.6002C-0.0554934 45.3948 0.528698 57.1838 1.75006 68.9152C1.77247 69.058 1.82319 69.1949 1.89924 69.3178C1.9753 69.4408 2.07516 69.5473 2.19295 69.6311C2.31075 69.7149 2.4441 69.7743 2.58519 69.8059C2.72627 69.8374 2.87223 69.8405 3.01451 69.8148C3.15678 69.7891 3.29249 69.7353 3.41367 69.6565C3.53484 69.5776 3.63904 69.4754 3.72014 69.3557C3.80124 69.236 3.85761 69.1013 3.88593 68.9596C3.91425 68.8178 3.91396 68.6718 3.88506 68.5302C3.36006 65.2052 2.87006 54.5302 2.80006 43.6452C2.64385 36.5094 2.87753 29.3704 3.50006 22.2602C9.24006 26.1102 20.5801 33.6352 29.8551 38.6752L34.9651 41.1952C37.7106 42.6987 40.7145 43.6723 43.8201 44.0652C45.2326 43.8378 46.5877 43.3386 47.8101 42.5952C48.7619 42.0865 49.685 41.5256 50.5751 40.9152L55.6151 37.4152C56.8051 36.5402 57.9601 35.7002 59.1151 34.7202C65.9145 29.5146 72.2712 23.7549 78.1201 17.5002C78.1201 17.8852 78.3651 18.3402 78.4701 18.8302C79.4904 24.3116 79.971 29.8799 79.9051 35.4552C80.0857 45.0038 79.6648 54.5544 78.6451 64.0502C78.6451 64.8202 78.4001 65.6252 78.2951 66.0802H75.8801C69.6151 66.7102 56.2801 67.6902 42.7001 68.5302C27.3351 69.4752 11.6901 70.2802 5.74006 70.4202C5.5792 70.4202 5.4199 70.4518 5.27128 70.5134C5.12265 70.575 4.98761 70.6652 4.87386 70.779C4.76011 70.8927 4.66987 71.0278 4.60831 71.1764C4.54675 71.325 4.51506 71.4843 4.51506 71.6452C4.52418 71.9732 4.66094 72.2848 4.89626 72.5136C5.13157 72.7424 5.44687 72.8703 5.77506 72.8702C13.7201 72.8702 38.8501 71.8552 57.6801 70.8402C66.6401 70.3852 74.1651 69.8952 77.7351 69.5452C78.7678 69.4879 79.7843 69.2633 80.7451 68.8802C81.1326 68.6317 81.4277 68.2628 81.5851 67.8302C81.9682 66.767 82.2266 65.6629 82.3551 64.5402C83.5205 54.8548 84.0699 45.1052 84.0001 35.3502C84.0777 29.4714 83.5854 23.5989 82.5301 17.8152ZM60.3751 29.2952C56.0701 32.5152 51.6951 35.5252 48.3351 37.5552C46.8994 38.6119 45.2878 39.4059 43.5751 39.9002C42.0217 39.7024 40.5164 39.2282 39.1301 38.5002C35.9801 37.2052 31.9201 35.2102 27.6151 32.9352C18.6901 28.3502 8.82006 22.7152 3.95506 19.8802C8.08506 17.4652 19.9501 16.3802 32.9701 15.6802C46.6562 14.9211 60.3739 14.9211 74.0601 15.6802H76.2301C71.302 20.6183 66.0013 25.1701 60.3751 29.2952Z" fill="black"/>
<path d="M61.8801 50.4353C63.0701 51.5903 64.2951 52.7103 65.3801 53.7603C68.8801 57.0153 72.3801 59.8503 73.9901 61.4253C74.2249 61.652 74.5386 61.7787 74.8651 61.7787C75.1915 61.7787 75.5052 61.652 75.7401 61.4253C75.8565 61.3112 75.9489 61.1751 76.0121 61.0248C76.0752 60.8746 76.1077 60.7133 76.1077 60.5503C76.1077 60.3873 76.0752 60.226 76.0121 60.0757C75.9489 59.9255 75.8565 59.7893 75.7401 59.6753C74.2351 57.8903 71.435 54.5653 68.11 50.9603C66.99 49.7703 65.8234 48.6036 64.61 47.4603C63.42 46.3053 62.195 45.1503 61.11 43.9603C60.025 42.7703 58.2751 41.5803 56.9451 40.4603C54.5301 38.8153 52.7451 40.4603 54.4601 42.5253C55.6501 43.8203 56.9451 45.2553 58.3801 46.7253C59.8151 48.1953 60.6901 49.2803 61.8801 50.4353Z" fill="black"/>
<path d="M16.065 53.725C12.4294 57.3255 8.99422 61.1229 5.77499 65.1C5.66927 65.2218 5.58858 65.3633 5.53753 65.5163C5.48647 65.6692 5.46605 65.8308 5.47742 65.9917C5.4888 66.1525 5.53175 66.3096 5.60382 66.4539C5.6759 66.5982 5.77569 66.7268 5.89749 66.8325C6.01929 66.9383 6.16072 67.0189 6.3137 67.07C6.46669 67.1211 6.62823 67.1415 6.78911 67.1301C6.94998 67.1187 7.10705 67.0758 7.25132 67.0037C7.3956 66.9316 7.52427 66.8318 7.62999 66.71C9.69499 64.61 13.545 61.425 17.745 57.68C19.95 55.685 22.26 53.585 24.395 51.415C26.53 49.245 29.365 46.095 31.395 43.68C33.425 41.265 30.905 40.18 28.525 42.315C26.705 43.925 24.745 45.605 22.68 47.46C20.615 49.315 18.2 51.625 16.065 53.725Z" fill="black"/>
</g>
<defs>
<clipPath id="clip0_129_28415">
<rect width="84" height="84" fill="white"/>
</clipPath>
</defs>
</svg>
