<svg width="130" height="130" viewBox="0 0 130 130" fill="none" xmlns="http://www.w3.org/2000/svg">
<path fill-rule="evenodd" clip-rule="evenodd" d="M46.9313 56.8067C43.8016 55.0996 40.1838 54.5863 36.1225 55.7745C23.5591 59.4509 18.4768 69.2891 17.7906 80.9515C16.7892 97.9806 25.3024 118.937 32.9118 129.353C33.2716 129.847 33.9635 129.953 34.4544 129.593C34.9481 129.233 35.0568 128.541 34.697 128.047C27.3107 117.939 19.0263 97.6069 19.997 81.0798C20.6274 70.3714 25.2048 61.2724 36.7445 57.8973C40.1782 56.8903 43.2298 57.3338 45.8797 58.7703C44.9676 60.5165 44.1168 62.2654 43.3302 64.0144C41.16 68.8428 37.916 82.2485 39.1266 92.1062C39.9969 99.1773 43.1517 104.419 50.047 104.234C53.8796 104.131 56.6522 101.744 58.3481 97.9444C60.6829 92.7227 60.945 84.7227 59.3021 77.0575C57.9353 70.6754 55.2576 64.536 51.4585 60.4161C50.6216 59.5123 49.7345 58.7006 48.7945 58.0032C61.9046 34.0257 86.2587 11.6047 111.268 2.14871C111.837 1.93114 112.127 1.2952 111.91 0.723375C111.695 0.151552 111.056 -0.13577 110.487 0.079012C85.0704 9.69121 60.312 32.4386 46.9313 56.8067ZM47.7373 59.9865C46.8838 61.6295 46.0861 63.2752 45.3469 64.9209C43.2688 69.5485 40.1614 82.3908 41.3218 91.8356C42.0331 97.632 44.3372 102.176 49.9885 102.025C52.9564 101.944 55.0148 99.9835 56.3314 97.0435C57.7763 93.8078 58.3287 89.4256 58.0971 84.7534C57.7457 77.66 55.5784 69.9 51.8071 64.4077C50.6133 62.6671 49.2548 61.1581 47.7373 59.9865Z" fill="white"/>
<path fill-rule="evenodd" clip-rule="evenodd" d="M91.5064 38.3321C93.7323 25.3336 102.229 11.4927 111.386 1.90834C111.807 1.46762 111.791 0.767459 111.35 0.346263C110.909 -0.0749336 110.209 -0.060954 109.788 0.379768C100.343 10.2625 91.6235 24.5581 89.3278 37.9583C89.2246 38.558 89.6292 39.1298 90.2317 39.2331C90.8314 39.3363 91.4032 38.9318 91.5064 38.3321Z" fill="white"/>
<path fill-rule="evenodd" clip-rule="evenodd" d="M109.646 0.146652C100.111 5.59152 85.4867 6.34468 74.8257 3.58598C74.2343 3.43256 73.629 3.78684 73.4784 4.37819C73.325 4.96954 73.6792 5.572 74.2705 5.72541C85.4392 8.61521 100.753 7.77006 110.742 2.06578C111.272 1.76453 111.456 1.08667 111.155 0.556683C110.851 0.0267009 110.176 -0.15739 109.646 0.146652Z" fill="white"/>
</svg>
