<svg width="104" height="107" viewBox="0 0 104 107" fill="none" xmlns="http://www.w3.org/2000/svg">
<path fill-rule="evenodd" clip-rule="evenodd" d="M39.542 0.284116C33.9152 9.51663 32.473 22.4701 34.0813 35.8319C36.4865 55.7958 45.6869 76.6637 57.665 87.2901C57.9144 87.5059 58.2885 87.4768 58.4983 87.226C58.7137 86.9694 58.6854 86.5903 58.4359 86.3686C46.6449 75.9055 37.6203 55.3409 35.2564 35.6802C33.6822 22.6217 35.041 9.95404 40.5453 0.931492C40.7211 0.64571 40.6361 0.272478 40.3583 0.0916766C40.0862 -0.083292 39.7177 -0.00166557 39.542 0.284116Z" fill="white"/>
<path fill-rule="evenodd" clip-rule="evenodd" d="M67.8363 103.528C61.2039 97.0077 56.0226 90.5922 46.9753 86.8304C46.6692 86.7079 46.3234 86.8537 46.2043 87.1686C46.0796 87.4777 46.227 87.8335 46.5275 87.956C56.4818 92.0969 61.6631 99.5272 69.4009 106.689C69.8204 107.074 70.1719 106.835 70.2512 106.771C70.3703 106.678 70.529 106.491 70.4723 106.164C70.461 106.1 70.4213 105.978 70.3419 105.814C70.1832 105.505 69.8091 104.905 69.6673 104.619C69.2649 103.791 68.8851 102.957 68.4826 102.128C67.3318 99.7605 66.2094 97.3868 65.257 94.9314C61.68 85.7514 58.6983 78.2686 62.3944 68.762C62.5191 68.447 62.3716 68.097 62.0655 67.9687C61.7651 67.8462 61.4193 67.9979 61.3003 68.307C57.4738 78.1403 60.4613 85.8913 64.1573 95.3863C65.1267 97.8709 66.2604 100.28 67.4225 102.671C67.5643 102.957 67.7003 103.242 67.8363 103.528Z" fill="white"/>
</svg>
